<svg width="25" height="12" viewBox="0 0 25 12" fill="none" xmlns="http://www.w3.org/2000/svg">
<path opacity="0.35" d="M2.66699 0.832031H19.333C20.5296 0.832031 21.5 1.80241 21.5 2.99902V8.99902C21.4998 10.1955 20.5295 11.165 19.333 11.165H2.66699C1.47048 11.165 0.500176 10.1955 0.5 8.99902V2.99902C0.5 1.80241 1.47037 0.832031 2.66699 0.832031Z" stroke="black"/>
<path opacity="0.4" d="M23 3.99805V7.99805C23.8047 7.65927 24.328 6.87118 24.328 5.99805C24.328 5.12491 23.8047 4.33682 23 3.99805" fill="black"/>
<path d="M2 3.66537C2 2.92899 2.59695 2.33203 3.33333 2.33203H18.6667C19.403 2.33203 20 2.92898 20 3.66536V8.33203C20 9.06841 19.403 9.66536 18.6667 9.66536H3.33333C2.59695 9.66536 2 9.06841 2 8.33203V3.66537Z" fill="black"/>
</svg>
