<svg width="54" height="21" viewBox="0 0 54 21" fill="none" xmlns="http://www.w3.org/2000/svg">
<path d="M16.3203 16.2568C19.0083 16.2568 20.605 14.1548 20.605 10.5952C20.605 9.25488 20.3486 8.12695 19.8579 7.25537C19.1475 5.90039 17.9243 5.16797 16.3789 5.16797C14.0791 5.16797 12.4531 6.71338 12.4531 8.88135C12.4531 10.9175 13.918 12.397 15.9321 12.397C17.1699 12.397 18.1733 11.8184 18.6714 10.8149H18.6934C18.6934 10.8149 18.7227 10.8149 18.73 10.8149C18.7446 10.8149 18.7959 10.8149 18.7959 10.8149C18.7959 13.2319 17.8804 14.6748 16.335 14.6748C15.4268 14.6748 14.7236 14.1768 14.4819 13.3784H12.5996C12.9146 15.1143 14.3867 16.2568 16.3203 16.2568ZM16.3862 10.8955C15.1704 10.8955 14.3062 10.0312 14.3062 8.82275C14.3062 7.64355 15.2144 6.74268 16.3936 6.74268C17.5728 6.74268 18.481 7.6582 18.481 8.85205C18.481 10.0312 17.5947 10.8955 16.3862 10.8955Z" fill="black"/>
<path d="M23.6961 16.1543C24.3919 16.1543 24.868 15.6562 24.868 14.9971C24.868 14.3306 24.3919 13.8398 23.6961 13.8398C23.0076 13.8398 22.5242 14.3306 22.5242 14.9971C22.5242 15.6562 23.0076 16.1543 23.6961 16.1543ZM23.6961 10.6611C24.3919 10.6611 24.868 10.1704 24.868 9.51123C24.868 8.84473 24.3919 8.354 23.6961 8.354C23.0076 8.354 22.5242 8.84473 22.5242 9.51123C22.5242 10.1704 23.0076 10.6611 23.6961 10.6611Z" fill="black"/>
<path d="M31.7237 16.0005H33.5328V14.0303H34.961V12.4336H33.5328V5.43164H30.8668C28.9991 8.24414 27.5123 10.5952 26.5602 12.3457V14.0303H31.7237V16.0005ZM28.3106 12.3677C29.5411 10.1997 30.6397 8.46387 31.6505 6.96973H31.753V12.4775H28.3106V12.3677Z" fill="black"/>
<path d="M38.9896 16.0005H40.8793V5.43164H38.997L36.2357 7.36523V9.18164L38.8651 7.33594H38.9896V16.0005Z" fill="black"/>
</svg>
