<svg width="18" height="12" viewBox="0 0 18 12" fill="none" xmlns="http://www.w3.org/2000/svg">
<path d="M2.66699 7.33301C3.21928 7.33301 3.66699 7.78072 3.66699 8.33301V10.333C3.66682 10.8851 3.21917 11.333 2.66699 11.333H1.66699C1.11482 11.333 0.667168 10.8851 0.666992 10.333V8.33301C0.666992 7.78072 1.11471 7.33301 1.66699 7.33301H2.66699ZM7.33398 5.33301C7.88612 5.33318 8.33398 5.78083 8.33398 6.33301V10.333C8.33381 10.885 7.88601 11.3328 7.33398 11.333H6.33398C5.78181 11.333 5.33416 10.8851 5.33398 10.333V6.33301C5.33398 5.78072 5.7817 5.33301 6.33398 5.33301H7.33398ZM12 2.99902C12.5522 2.99902 12.9998 3.44689 13 3.99902V10.333C12.9998 10.8851 12.5522 11.333 12 11.333H11C10.448 11.3328 10.0002 10.885 10 10.333V3.99902C10.0002 3.447 10.448 2.9992 11 2.99902H12ZM16.667 0.666016C17.2193 0.666016 17.667 1.11373 17.667 1.66602V10.333C17.6668 10.8851 17.2192 11.333 16.667 11.333H15.667C15.1148 11.333 14.6672 10.8851 14.667 10.333V1.66602C14.667 1.11373 15.1147 0.666016 15.667 0.666016H16.667Z" fill="black"/>
</svg>
