<svg width="16" height="12" viewBox="0 0 16 12" fill="none" xmlns="http://www.w3.org/2000/svg">
<path d="M6.12109 8.73047C7.39667 7.65158 9.26544 7.65158 10.541 8.73047C10.605 8.78849 10.6418 8.87064 10.6436 8.95703C10.6453 9.04349 10.6115 9.12693 10.5498 9.1875L8.55273 11.2031C8.49421 11.2623 8.4143 11.2959 8.33105 11.2959C8.2478 11.2959 8.16792 11.2623 8.10938 11.2031L6.11133 9.1875C6.04973 9.12691 6.01581 9.04342 6.01758 8.95703C6.01941 8.87058 6.05695 8.78845 6.12109 8.73047ZM3.45605 6.04102C6.20415 3.48497 10.4599 3.48503 13.208 6.04102C13.27 6.10087 13.3057 6.18341 13.3066 6.26953C13.3075 6.35571 13.2736 6.43882 13.2129 6.5L12.0586 7.66699C11.9396 7.7861 11.7471 7.78875 11.625 7.67285C10.7226 6.85567 9.5485 6.40327 8.33105 6.40332C7.11437 6.40382 5.94093 6.85618 5.03906 7.67285C4.91699 7.78867 4.7244 7.78607 4.60547 7.66699L3.45117 6.5C3.3905 6.43893 3.35661 6.35563 3.35742 6.26953C3.35836 6.18341 3.39409 6.10085 3.45605 6.04102ZM0.791016 3.35938C5.00613 -0.679795 11.6561 -0.680047 15.8711 3.35938C15.932 3.41932 15.9662 3.50146 15.9668 3.58691C15.9673 3.67247 15.9333 3.75471 15.873 3.81543L14.7168 4.98242C14.5977 5.1019 14.405 5.10314 14.2842 4.98535C12.6783 3.45862 10.5469 2.60755 8.33105 2.60742C6.11496 2.60742 3.9831 3.45847 2.37695 4.98535C2.25616 5.10334 2.06338 5.10212 1.94434 4.98242L0.788086 3.81543C0.727822 3.75466 0.693773 3.67249 0.694336 3.58691C0.694952 3.50141 0.730005 3.4193 0.791016 3.35938Z" fill="black"/>
</svg>
